<?xml version="1.0" encoding="iso-8859-1"?>
<!-- Generator: Adobe Illustrator 19.0.0, SVG Export Plug-In . SVG Version: 6.00 Build 0)  -->
<svg version="1.1" id="Capa_1" xmlns="http://www.w3.org/2000/svg" xmlns:xlink="http://www.w3.org/1999/xlink" x="0px" y="0px"
	 viewBox="0 0 511.999 511.999" style="enable-background:new 0 0 511.999 511.999;" xml:space="preserve">
<g>
	<g>
		<path fill="#ffffff" d="M469.577,205.289c-33.016,33.018-77.932,51.211-124.632,51.211h-177.89c-46.699,0-91.615-18.193-124.633-51.211L0,247.711
			C44.355,292.065,104.345,316.5,167.069,316.5H344.93c62.725,0,122.714-24.434,167.069-68.789L469.577,205.289z"/>
	</g>
</g>
<g>
	<g>
		<path fill="#ffffff" d="M451,406.5v-30H271v30h-30v-30H61v30H31v30h35.53c12.424,34.845,45.412,60,84.47,60s72.048-25.155,84.472-60h41.058
			c12.424,34.845,45.412,60,84.47,60c39.058,0,72.048-25.155,84.472-60H481v-30H451z"/>
	</g>
</g>
<g>
	<g>
		<path fill="#ffffff" d="M316,15.5h-15v15c0,24.814-20.186,45-45,45c-24.814,0-45-20.186-45-45v-15h-15c-41.353,0-75,33.647-75,75v76h270v-76
			C391,49.146,357.353,15.5,316,15.5z"/>
	</g>
</g>
<g>
	<g>
		<path fill="#ffffff" d="M121,196.5v21.892c14.713,4.942,30.082,8.108,46.055,8.108h177.891c15.972,0,31.342-3.166,46.055-8.108V196.5H121z"/>
	</g>
</g>
<g>
</g>
<g>
</g>
<g>
</g>
<g>
</g>
<g>
</g>
<g>
</g>
<g>
</g>
<g>
</g>
<g>
</g>
<g>
</g>
<g>
</g>
<g>
</g>
<g>
</g>
<g>
</g>
<g>
</g>
</svg>
