<svg id="Capa_1" enable-background="new 0 0 512 512" height="512" viewBox="0 0 512 512" width="512" xmlns="http://www.w3.org/2000/svg"><g><path fill="#ffffff" d="m437.04 136.034c-7.407-25.566-20.187-49.471-37.711-69.967-34.611-40.482-86.166-66.067-143.33-66.067-42.434 0-82.501 13.767-115.871 39.813-3.265 2.548-3.846 7.262-1.297 10.527 2.548 3.266 7.26 3.847 10.527 1.297 30.707-23.968 67.583-36.637 106.641-36.637 95.984 0 173.501 77.043 173.501 173.502 0 95.667-77.832 173.498-173.501 173.498-95.668 0-173.499-77.831-173.499-173.498 0-43.604 16.246-85.292 45.744-117.385 2.803-3.049 2.603-7.794-.447-10.597-3.049-2.803-7.792-2.603-10.597.447-19.913 21.663-34.262 47.353-42.278 75.064-29.155.054-52.422 23.679-52.422 52.471 0 28.79 23.285 52.439 52.443 52.484 16.085 55.4 56.963 100.35 109.773 122.004-52.146 26.313-87.216 80.243-87.216 141.51 0 4.143 3.358 7.5 7.5 7.5h302c4.143 0 7.5-3.357 7.5-7.5 0-23.743-5.166-46.615-15.354-67.982-1.783-3.738-6.259-5.325-9.998-3.541-3.738 1.782-5.324 6.259-3.541 9.998 8.142 17.075 12.739 35.215 13.702 54.025h-30.072c-1.869-27.452-13.909-53.84-33.692-73.342-2.95-2.907-7.698-2.876-10.606.075-2.908 2.95-2.874 7.699.076 10.606 16.94 16.7 27.347 39.202 29.189 62.66h-196.407c1.843-23.455 12.253-45.957 29.196-62.66 2.95-2.908 2.984-7.656.076-10.606s-7.657-2.983-10.606-.075c-19.787 19.506-31.83 45.894-33.699 73.342h-30.063c2.98-55.622 38.874-105.724 91.203-126.199.504-.197.972-.445 1.406-.732 16.135 4.51 33.134 6.931 50.689 6.931 17.511 0 34.468-2.409 50.567-6.897 2.78 1.617 37.032 12.122 64.304 48.518 2.485 3.317 7.188 3.986 10.499 1.505 3.315-2.483 3.989-7.185 1.505-10.499-14.786-19.734-33.806-35.642-55.582-46.64 52.807-21.655 93.682-66.604 109.766-122.001 29.153-.046 52.443-23.683 52.443-52.483-.001-28.702-23.169-52.424-52.461-52.469zm-399.54 52.468c0-19.009 14.312-35.313 33.714-37.284-2.448 12.176-3.714 24.655-3.714 37.284 0 12.772 1.283 25.249 3.716 37.314-19.106-1.852-33.716-18.137-33.716-37.314zm403.29 37.282c2.428-12.056 3.71-24.522 3.71-37.282 0-12.609-1.266-25.107-3.733-37.317 19.049 1.835 33.733 18.072 33.733 37.317 0 19.009-14.312 35.308-33.71 37.282z"/><path d="m286.088 213.218c34.368-13.206 55.921-46.812 53.634-83.625-2.612-42.095-36.327-75.809-78.416-78.422-49.879-3.136-89.195 36.862-89.195 83.724 0 15.454 12.573 28.027 28.028 28.027s28.028-12.573 28.028-28.027c0-15.995 13.376-28.798 29.66-27.775 13.7.85 25.098 12.248 25.949 25.948.761 12.26-6.391 23.441-17.797 27.824-23.089 8.876-38.008 30.462-38.008 54.995v20.244c0 15.455 12.573 28.028 28.028 28.028s28.028-12.573 28.028-28.028v-20.244c0-1.158.79-2.181 2.061-2.669zm-5.381-14.002c-7.095 2.728-11.68 9.271-11.68 16.671v20.244c0 7.184-5.844 13.028-13.028 13.028s-13.028-5.845-13.028-13.028v-20.244c0-18.273 11.144-34.364 28.39-40.993 17.549-6.744 28.555-23.926 27.387-42.756-1.312-21.115-18.878-38.681-39.989-39.99-24.828-1.547-45.591 17.979-45.591 42.747 0 7.184-5.844 13.027-13.028 13.027s-13.028-5.844-13.028-13.027c0-38.388 32.186-71.334 73.26-68.752 34.558 2.145 62.236 29.822 64.381 64.38 1.878 30.243-15.822 57.848-44.046 68.693z"/><path d="m256.008 278.944c-15.455 0-28.028 12.573-28.028 28.027 0 15.455 12.573 28.028 28.028 28.028s28.028-12.573 28.028-28.028c0-15.453-12.574-28.027-28.028-28.027zm0 41.056c-7.184 0-13.028-5.845-13.028-13.028s5.844-13.027 13.028-13.027 13.028 5.844 13.028 13.027-5.845 13.028-13.028 13.028z"/></g></svg>