<?xml version="1.0" standalone="yes"?><svg xmlns="http://www.w3.org/2000/svg" height="512pt" viewBox="0 0 512.0026 512" width="512pt" style="zoom: 1;" visibility="visible"><path fill="white" d="M166.722656,281.363281 c11.003906,.949219 19.15625,10.640625 18.207032,21.648438 c-.949219,11.003906 -10.625,19.164062 -21.644532,18.203125 c-43.570312,-3.757813 -86.089844,1.074218 -137.851562,15.664062 c-1.816406,.511719 -3.644532,.757813 -5.441406,.757813 c-8.726563,0 -16.75,-5.761719 -19.238282,-14.578125 c-2.996094,-10.632813 3.195313,-21.679688 13.824219,-24.675782 c55.855469,-15.75 104.203125,-21.15625 152.144531,-17.019531 m321.542969,16.621094 c-107.097656,20.347656 -171.011719,10.9375 -227.300781,-.445313 c-10.824219,-2.1875 -21.375,4.8125 -23.566406,15.640626 c-2.1875,10.824218 4.8125,21.375 15.640624,23.566406 c34.515626,6.976562 71.695313,13.265625 118.683594,13.265625 c34.941406,0 75.308594,-3.476563 124.011719,-12.730469 c10.851563,-2.0625 17.976563,-12.53125 15.914063,-23.382812 c-2.066407,-10.851563 -12.527344,-17.976563 -23.382813,-15.914063 m-406.050781,147.835937 c-21.503906,3.027344 -43.628906,7.789063 -67.636719,14.558594 c-10.628906,2.996094 -16.820313,14.046875 -13.820313,24.675782 c2.484376,8.816406 10.507813,14.578124 19.238282,14.578124 c1.796875,0 3.621094,-.246093 5.4375,-.753906 c22.257812,-6.277344 42.65625,-10.675781 62.359375,-13.449218 c10.9375,-1.542969 18.554687,-11.65625 17.015625,-22.59375 c-1.539063,-10.941407 -11.664063,-18.558594 -22.59375,-17.015626 m406.050781,14.160157 c-117.683594,22.359375 -181.484375,9.105469 -243.183594,-3.714844 c-19.679687,-4.089844 -38.265625,-7.949219 -58.394531,-10.679687 c-10.941406,-1.476563 -21.019531,6.191406 -22.503906,17.136718 c-1.480469,10.945313 6.1875,21.019532 17.132812,22.503906 c18.738282,2.539063 36.65625,6.261719 55.628906,10.203126 c38.25,7.945312 79.617188,16.542968 134.753907,16.542968 c34.921875,0 75.367187,-3.449218 124.03125,-12.695312 c10.851562,-2.0625 17.976562,-12.53125 15.914062,-23.382813 c-2.0625,-10.851562 -12.53125,-17.976562 -23.378906,-15.914062 m-176.601563,-33.507813 c.792969,.09375 1.582032,.136719 2.363282,.136719 c10,0 18.640625,-7.488281 19.835937,-17.664063 c1.292969,-10.96875 -6.554687,-20.90625 -17.523437,-22.199218 c-25.8125,-3.035156 -48.914063,-7.835938 -71.257813,-12.476563 c-63.921875,-13.285156 -124.304687,-25.828125 -230.5,4.109375 c-10.632812,2.996094 -16.820312,14.046875 -13.824219,24.675782 c3,10.632812 14.050782,16.820312 24.675782,13.824218 c96.785156,-27.285156 149.949218,-16.238281 211.511718,-3.449218 c23.1875,4.816406 47.167969,9.800781 74.71875,13.042968 m176.601563,-48.492187 c-32.832031,6.238281 -62.683594,9.960937 -91.257813,11.378906 c-11.03125,.546875 -19.53125,9.933594 -18.984374,20.964844 c.53125,10.695312 9.367187,19.007812 19.960937,19.007812 c.332031,0 .671875,-.007812 1.007813,-.023437 c30.433593,-1.511719 62.074218,-5.445313 96.738281,-12.03125 c10.851562,-2.058594 17.976562,-12.527344 15.914062,-23.378906 c-2.0625,-10.851563 -12.53125,-17.976563 -23.378906,-15.917969 m-468.21875,-103.984375 c.140625,0 .28125,0 .421875,-.003906 c11.046875,-.230469 19.8125,-9.367188 19.582031,-20.410157 c-.03125,-1.550781 -.046875,-3.082031 -.046875,-4.585937 c0,-42.425782 33.300782,-78.324219 75.804688,-81.726563 c9.621094,-.773437 17.316406,-8.296875 18.300781,-17.898437 c6.398437,-62.351563 58.570313,-109.371094 121.351563,-109.371094 c41.53125,0 79.449218,20.863281 101.765624,54.632812 c-10.136718,4.511719 -19.472656,10.871094 -27.554687,18.953126 c-17.304687,17.304687 -26.832031,40.3125 -26.832031,64.785156 c0,11.046875 8.953125,20 19.996094,20 c11.046874,0 20,-8.953125 20,-20 c0,-13.789063 5.371093,-26.75 15.121093,-36.503906 c9.410157,-9.410157 21.820313,-14.722657 35.070313,-15.082032 c27.816406,.75 50.214844,23.59375 50.214844,51.585938 c0,4.503906 -.589844,8.992187 -1.753907,13.351562 c-2.015625,7.558594 .558594,15.597656 6.59375,20.578125 c13.1875,10.890625 21.90625,26.9375 23.914063,44.03125 c1.195312,10.175781 9.835937,17.667969 19.835937,17.667969 c.78125,0 1.570313,-.046875 2.359375,-.140625 c10.972656,-1.289063 18.820313,-11.226563 17.53125,-22.195313 c-2.765625,-23.535156 -13.011718,-45.109374 -29.195312,-61.894531 c.476562,-3.777343 .714844,-7.585937 .714844,-11.398437 c0,-47.992188 -37.097657,-87.488282 -84.121094,-91.316406 c-27.765625,-53.296876 -82.789063,-87.054688 -143.660156,-87.054688 c-40.351563,0 -79.015626,14.929688 -108.867188,42.035156 c-25.71875,23.355469 -43.101562,54.058594 -49.90625,87.695313 c-24.34375,5.222656 -46.605469,17.785156 -63.871094,36.273437 c-21.15625,22.65625 -32.8085935,52.132813 -32.8085935,82.992188 c0,1.773437 .0117187,3.585937 .0507813,5.414062 c.2265622,10.90625 9.1367182,19.585938 19.9882812,19.585938 m0,0 " visibility="visible"></path></svg>